<svg width="32" height="32" viewBox="-2 -2 58 48" fill="none" xmlns="http://www.w3.org/2000/svg">
<path d="M0 23.87C0 24.77 0.75 25.5 1.65 25.49L17.95 25.46C18.86 25.45 19.59 24.73 19.58 23.82C19.58 22.93 18.85 22.2 17.93 22.2L1.63 22.24C0.73 22.24 0 22.98 0 23.87Z" fill="#00BCEB"/>
<path d="M11.06 36.99C11.52 37.76 12.52 38.02 13.3 37.56L20.19 33.54C20.98 33.08 21.25 32.09 20.79 31.31C20.34 30.54 19.34 30.27 18.55 30.73L11.66 34.75C10.88 35.21 10.61 36.21 11.06 36.99Z" fill="#00BCEB"/>
<path d="M21.87 41.74C22.65 42.18 23.65 41.9 24.09 41.12L26.24 38.06C26.69 37.27 26.42 36.27 25.64 35.83C24.86 35.38 23.87 35.65 23.41 36.45L21.27 39.5C20.82 40.29 21.09 41.29 21.87 41.74Z" fill="#00BCEB"/>
<path d="M45.63 0.21C44.85 -0.23 43.85 0.05 43.41 0.83L35.29 14.97C34.83 15.76 35.1 16.75 35.88 17.2C36.66 17.64 37.66 17.37 38.11 16.58L46.23 2.45C46.68 1.66 46.41 0.66 45.63 0.21Z" fill="#74BF4B"/>
<path d="M18.25 12.94C17.56 13.52 17.48 14.55 18.05 15.24L20.18 18.31C20.76 19.02 21.79 19.11 22.48 18.53C23.16 17.95 23.26 16.93 22.67 16.23L20.55 13.15C19.97 12.46 18.93 12.36 18.25 12.94Z" fill="#FF6D2D"/>
<path d="M28.98 4.17C28.08 4.17 27.36 4.92 27.36 5.82L27.39 13.8C27.4 14.71 28.13 15.44 29.03 15.43C29.93 15.43 30.65 14.7 30.65 13.78L30.61 5.8C30.61 4.9 29.88 4.17 28.98 4.17Z" fill="#0051AF"/>
<text x="42" y="44" font-family="Inter, system-ui, -apple-system, sans-serif" font-size="18" font-weight="300" fill="#00BCEB">d</text>
</svg>
