<svg width="1147" height="420" viewBox="0 0 1147 420" fill="none" xmlns="http://www.w3.org/2000/svg">
<defs>
  <linearGradient id="bg" x1="0" y1="0" x2="1147" y2="420"><stop offset="0%" stop-color="#1a1d27"/><stop offset="100%" stop-color="#22263a"/></linearGradient>
  <linearGradient id="border" x1="0" y1="0" x2="1147" y2="420"><stop offset="0%" stop-color="rgba(255,255,255,0.12)"/><stop offset="100%" stop-color="rgba(255,255,255,0.04)"/></linearGradient>
</defs>
<rect width="1147" height="420" rx="16" fill="url(#bg)"/>
<rect x="0.5" y="0.5" width="1146" height="419" rx="15.5" stroke="url(#border)"/>

<text x="48" y="52" fill="#8b95a5" font-family="Inter, system-ui, sans-serif" font-size="13" font-weight="500" letter-spacing="1.5">TASK DELEGATION</text>

<rect x="48" y="72" width="1051" height="300" rx="12" fill="rgba(255,255,255,0.04)" stroke="rgba(255,255,255,0.08)" stroke-width="1"/>
<text x="72" y="104" fill="#e0e4ec" font-family="Inter, system-ui, sans-serif" font-size="16" font-weight="600">Project Task Board</text>
<text x="72" y="124" fill="#8b95a5" font-family="Inter, system-ui, sans-serif" font-size="12">Human and agent responsibilities are clearly divided</text>

<!-- Task columns -->
<!-- Human tasks -->
<rect x="72" y="144" width="316" height="208" rx="10" fill="rgba(255,255,255,0.03)" stroke="rgba(255,255,255,0.08)" stroke-width="1"/>
<rect x="72" y="144" width="316" height="32" rx="10" fill="rgba(255,255,255,0.04)"/>
<circle cx="92" cy="160" r="8" fill="rgba(0,188,235,0.15)"/>
<text x="92" y="164" fill="#00BCEB" font-family="Inter, system-ui, sans-serif" font-size="10" text-anchor="middle">👤</text>
<text x="110" y="164" fill="#e0e4ec" font-family="Inter, system-ui, sans-serif" font-size="12" font-weight="600">Your Tasks</text>
<text x="340" y="164" fill="#8b95a5" font-family="Inter, system-ui, sans-serif" font-size="11">3 items</text>

<rect x="84" y="188" width="292" height="44" rx="6" fill="rgba(0,188,235,0.04)" stroke="rgba(0,188,235,0.12)" stroke-width="1"/>
<text x="104" y="208" fill="#e0e4ec" font-family="Inter, system-ui, sans-serif" font-size="12" font-weight="500">Review final proposal</text>
<text x="104" y="224" fill="#00BCEB" font-family="Inter, system-ui, sans-serif" font-size="10">Decision required</text>

<rect x="84" y="240" width="292" height="44" rx="6" fill="rgba(255,255,255,0.03)" stroke="rgba(255,255,255,0.06)" stroke-width="1"/>
<text x="104" y="260" fill="#e0e4ec" font-family="Inter, system-ui, sans-serif" font-size="12" font-weight="500">Approve budget allocation</text>
<text x="104" y="276" fill="#8b95a5" font-family="Inter, system-ui, sans-serif" font-size="10">Requires authorization</text>

<rect x="84" y="292" width="292" height="44" rx="6" fill="rgba(255,255,255,0.03)" stroke="rgba(255,255,255,0.06)" stroke-width="1"/>
<text x="104" y="312" fill="#e0e4ec" font-family="Inter, system-ui, sans-serif" font-size="12" font-weight="500">Set project priorities</text>
<text x="104" y="328" fill="#8b95a5" font-family="Inter, system-ui, sans-serif" font-size="10">Strategic judgment needed</text>

<!-- Agent tasks -->
<rect x="410" y="144" width="316" height="208" rx="10" fill="rgba(255,255,255,0.03)" stroke="rgba(255,255,255,0.08)" stroke-width="1"/>
<rect x="410" y="144" width="316" height="32" rx="10" fill="rgba(0,188,235,0.04)"/>
<circle cx="430" cy="160" r="8" fill="rgba(0,188,235,0.15)"/>
<text x="430" y="164" fill="#00BCEB" font-family="Inter, system-ui, sans-serif" font-size="10" text-anchor="middle" font-weight="700">AI</text>
<text x="448" y="164" fill="#e0e4ec" font-family="Inter, system-ui, sans-serif" font-size="12" font-weight="600">Agent Tasks</text>
<text x="678" y="164" fill="#8b95a5" font-family="Inter, system-ui, sans-serif" font-size="11">4 items</text>

<rect x="422" y="188" width="292" height="44" rx="6" fill="rgba(52,199,89,0.04)" stroke="rgba(52,199,89,0.12)" stroke-width="1"/>
<circle cx="442" cy="210" r="6" fill="#34c759"/>
<text x="458" y="208" fill="#e0e4ec" font-family="Inter, system-ui, sans-serif" font-size="12" font-weight="500">Compile market data</text>
<text x="458" y="224" fill="#34c759" font-family="Inter, system-ui, sans-serif" font-size="10">Complete</text>

<rect x="422" y="240" width="292" height="44" rx="6" fill="rgba(0,188,235,0.04)" stroke="rgba(0,188,235,0.12)" stroke-width="1"/>
<circle cx="442" cy="262" r="6" fill="#00BCEB"/>
<text x="458" y="260" fill="#e0e4ec" font-family="Inter, system-ui, sans-serif" font-size="12" font-weight="500">Draft executive summary</text>
<text x="458" y="276" fill="#00BCEB" font-family="Inter, system-ui, sans-serif" font-size="10">In progress</text>

<rect x="422" y="292" width="292" height="44" rx="6" fill="rgba(255,255,255,0.03)" stroke="rgba(255,255,255,0.06)" stroke-width="1"/>
<circle cx="442" cy="314" r="6" fill="rgba(255,255,255,0.15)"/>
<text x="458" y="312" fill="#e0e4ec" font-family="Inter, system-ui, sans-serif" font-size="12" font-weight="500">Generate charts &amp; visuals</text>
<text x="458" y="328" fill="#8b95a5" font-family="Inter, system-ui, sans-serif" font-size="10">Queued</text>

<!-- Handoff column -->
<rect x="748" y="144" width="328" height="208" rx="10" fill="rgba(255,255,255,0.03)" stroke="rgba(255,255,255,0.08)" stroke-width="1"/>
<rect x="748" y="144" width="328" height="32" rx="10" fill="rgba(255,175,0,0.04)"/>
<text x="768" y="164" fill="#ffaf00" font-family="Inter, system-ui, sans-serif" font-size="12" font-weight="600">🔄  Handoff Points</text>

<rect x="760" y="188" width="304" height="56" rx="6" fill="rgba(255,175,0,0.04)" stroke="rgba(255,175,0,0.12)" stroke-width="1"/>
<text x="780" y="210" fill="#e0e4ec" font-family="Inter, system-ui, sans-serif" font-size="12" font-weight="500">Market data → Your review</text>
<text x="780" y="228" fill="#ffaf00" font-family="Inter, system-ui, sans-serif" font-size="10">Agent compiled · Awaiting your approval</text>

<rect x="760" y="256" width="304" height="56" rx="6" fill="rgba(255,255,255,0.03)" stroke="rgba(255,255,255,0.06)" stroke-width="1"/>
<text x="780" y="278" fill="#e0e4ec" font-family="Inter, system-ui, sans-serif" font-size="12" font-weight="500">Your priorities → Agent execution</text>
<text x="780" y="296" fill="#8b95a5" font-family="Inter, system-ui, sans-serif" font-size="10">Waiting for you to set priorities</text>
</svg>