<svg width="32" height="32" viewBox="0 0 32 32" fill="none" xmlns="http://www.w3.org/2000/svg">
<path d="M12 22C8.96 22 6.5 19.54 6.5 16.5C6.5 13.46 8.96 11 12 11C15.04 11 17.5 13.46 17.5 16.5C17.5 19.54 15.04 22 12 22ZM12 8C7.31 8 3.5 11.81 3.5 16.5C3.5 21.19 7.31 25 12 25C16.69 25 20.5 21.19 20.5 16.5C20.5 11.81 16.69 8 12 8Z" fill="#00BCEB"/>
<path d="M24.5 7.5V16.8C24.5 18.2 24.1 19.3 23.3 20.1C22.5 20.9 21.5 21.3 20.2 21.3C20.2 22.1 20.2 22.7 20.2 23C20.2 23.3 20.2 23.7 20.2 24.2C22.3 24.2 24 23.5 25.2 22.2C26.4 20.9 27 19.1 27 16.8V7.5H24.5Z" fill="#00BCEB"/>
</svg>
