<svg width="32" height="32" viewBox="-2 -2 36 36" fill="none" xmlns="http://www.w3.org/2000/svg">
<path d="M0 17.05C0.003 17.69 0.53 18.2 1.17 18.2L12.72 18.17C13.37 18.17 13.88 17.65 13.88 17.01C13.88 16.37 13.35 15.85 12.7 15.86L1.16 15.88C0.52 15.88 -0.003 16.4 0 17.05Z" fill="#00BCEB"/>
<path d="M7.84 26.4C8.16 26.95 8.87 27.13 9.43 26.81L14.31 23.96C14.87 23.63 15.06 22.93 14.74 22.37C14.42 21.82 13.71 21.63 13.15 21.96L8.27 24.81C7.71 25.13 7.52 25.84 7.84 26.4Z" fill="#00BCEB"/>
<path d="M15.49 29.78C16.04 30.1 16.75 29.9 17.07 29.34L18.59 27.17C18.91 26.61 18.72 25.9 18.16 25.58C17.61 25.26 16.9 25.45 16.58 26.01L15.06 28.18C14.74 28.74 14.93 29.45 15.49 29.78Z" fill="#00BCEB"/>
<path d="M32.33 0.15C31.78 -0.17 31.07 0.03 30.75 0.59L25 10.63C24.68 11.19 24.87 11.9 25.42 12.22C25.98 12.53 26.68 12.34 27.01 11.78L32.76 1.74C33.08 1.18 32.89 0.47 32.33 0.15Z" fill="#74BF4B"/>
<path d="M12.93 9.2C12.44 9.61 12.38 10.35 12.79 10.84L14.3 13.02C14.71 13.52 15.44 13.59 15.93 13.18C16.42 12.77 16.48 12.04 16.07 11.54L14.56 9.37C14.15 8.88 13.42 8.81 12.93 9.2Z" fill="#FF6D2D"/>
<path d="M20.53 2.96C19.89 2.96 19.38 3.49 19.38 4.13L19.41 9.8C19.41 10.45 19.93 10.96 20.57 10.96C21.21 10.96 21.72 10.44 21.72 9.79L21.69 4.12C21.69 3.48 21.17 2.96 20.53 2.96Z" fill="#0051AF"/>
</svg>
