<svg width="1147" height="420" viewBox="0 0 1147 420" fill="none" xmlns="http://www.w3.org/2000/svg">
<defs>
  <linearGradient id="bg" x1="0" y1="0" x2="1147" y2="420"><stop offset="0%" stop-color="#1a1d27"/><stop offset="100%" stop-color="#22263a"/></linearGradient>
  <linearGradient id="border" x1="0" y1="0" x2="1147" y2="420"><stop offset="0%" stop-color="rgba(255,255,255,0.12)"/><stop offset="100%" stop-color="rgba(255,255,255,0.04)"/></linearGradient>
</defs>
<rect width="1147" height="420" rx="16" fill="url(#bg)"/>
<rect x="0.5" y="0.5" width="1146" height="419" rx="15.5" stroke="url(#border)"/>

<text x="48" y="52" fill="#8b95a5" font-family="Inter, system-ui, sans-serif" font-size="13" font-weight="500" letter-spacing="1.5">CONTEXT VISIBILITY</text>

<!-- Panel -->
<rect x="48" y="72" width="660" height="300" rx="12" fill="rgba(255,255,255,0.04)" stroke="rgba(255,255,255,0.08)" stroke-width="1"/>
<text x="72" y="104" fill="#e0e4ec" font-family="Inter, system-ui, sans-serif" font-size="16" font-weight="600">Agent Context Panel</text>
<text x="72" y="124" fill="#8b95a5" font-family="Inter, system-ui, sans-serif" font-size="12">Data sources informing the agent's current response</text>

<!-- Source cards -->
<rect x="72" y="144" width="300" height="96" rx="8" fill="rgba(255,255,255,0.04)" stroke="rgba(255,255,255,0.08)" stroke-width="1"/>
<rect x="72" y="144" width="4" height="96" rx="2" fill="#00BCEB"/>
<text x="92" y="168" fill="#00BCEB" font-family="Inter, system-ui, sans-serif" font-size="11" font-weight="600">ACTIVE SOURCE</text>
<text x="92" y="188" fill="#e0e4ec" font-family="Inter, system-ui, sans-serif" font-size="13" font-weight="500">Project Documentation</text>
<text x="92" y="206" fill="#8b95a5" font-family="Inter, system-ui, sans-serif" font-size="11">12 files · Last updated 2h ago</text>
<text x="92" y="226" fill="#8b95a5" font-family="Inter, system-ui, sans-serif" font-size="11">Relevance: High</text>

<rect x="388" y="144" width="300" height="96" rx="8" fill="rgba(255,255,255,0.04)" stroke="rgba(255,255,255,0.08)" stroke-width="1"/>
<rect x="388" y="144" width="4" height="96" rx="2" fill="#00BCEB"/>
<text x="408" y="168" fill="#00BCEB" font-family="Inter, system-ui, sans-serif" font-size="11" font-weight="600">ACTIVE SOURCE</text>
<text x="408" y="188" fill="#e0e4ec" font-family="Inter, system-ui, sans-serif" font-size="13" font-weight="500">Slack Conversations</text>
<text x="408" y="206" fill="#8b95a5" font-family="Inter, system-ui, sans-serif" font-size="11">3 channels · Last 7 days</text>
<text x="408" y="226" fill="#8b95a5" font-family="Inter, system-ui, sans-serif" font-size="11">Relevance: Medium</text>

<rect x="72" y="256" width="300" height="96" rx="8" fill="rgba(255,255,255,0.04)" stroke="rgba(255,255,255,0.08)" stroke-width="1"/>
<rect x="72" y="256" width="4" height="96" rx="2" fill="rgba(255,255,255,0.15)"/>
<text x="92" y="280" fill="#555d6b" font-family="Inter, system-ui, sans-serif" font-size="11" font-weight="600">NOT USED</text>
<text x="92" y="300" fill="#6b7280" font-family="Inter, system-ui, sans-serif" font-size="13" font-weight="500">Email History</text>
<text x="92" y="318" fill="#555d6b" font-family="Inter, system-ui, sans-serif" font-size="11">Permission not granted</text>
<text x="92" y="338" fill="#555d6b" font-family="Inter, system-ui, sans-serif" font-size="11">Relevance: Unknown</text>

<rect x="388" y="256" width="300" height="96" rx="8" fill="rgba(255,255,255,0.04)" stroke="rgba(255,255,255,0.08)" stroke-width="1"/>
<rect x="388" y="256" width="4" height="96" rx="2" fill="#34c759"/>
<text x="408" y="280" fill="#34c759" font-family="Inter, system-ui, sans-serif" font-size="11" font-weight="600">VERIFIED SOURCE</text>
<text x="408" y="300" fill="#e0e4ec" font-family="Inter, system-ui, sans-serif" font-size="13" font-weight="500">Company Knowledge Base</text>
<text x="408" y="318" fill="#8b95a5" font-family="Inter, system-ui, sans-serif" font-size="11">42 articles · Curated</text>
<text x="408" y="338" fill="#8b95a5" font-family="Inter, system-ui, sans-serif" font-size="11">Relevance: High</text>

<!-- Right side: Summary -->
<rect x="756" y="72" width="343" height="300" rx="12" fill="rgba(255,255,255,0.04)" stroke="rgba(255,255,255,0.08)" stroke-width="1"/>
<text x="780" y="104" fill="#e0e4ec" font-family="Inter, system-ui, sans-serif" font-size="16" font-weight="600">Context Summary</text>

<text x="780" y="140" fill="#8b95a5" font-family="Inter, system-ui, sans-serif" font-size="12">The agent is using:</text>

<circle cx="796" cy="168" r="6" fill="#00BCEB"/>
<text x="812" y="172" fill="#e0e4ec" font-family="Inter, system-ui, sans-serif" font-size="13">3 active data sources</text>
<circle cx="796" cy="196" r="6" fill="#34c759"/>
<text x="812" y="200" fill="#e0e4ec" font-family="Inter, system-ui, sans-serif" font-size="13">1 verified source</text>
<circle cx="796" cy="224" r="6" fill="rgba(255,255,255,0.15)"/>
<text x="812" y="228" fill="#8b95a5" font-family="Inter, system-ui, sans-serif" font-size="13">1 source not available</text>

<line x1="780" y1="252" x2="1075" y2="252" stroke="rgba(255,255,255,0.06)" stroke-width="1"/>

<text x="780" y="280" fill="#8b95a5" font-family="Inter, system-ui, sans-serif" font-size="12">Total tokens processed:</text>
<text x="780" y="300" fill="#e0e4ec" font-family="Inter, system-ui, sans-serif" font-size="20" font-weight="600">14,230</text>

<text x="780" y="332" fill="#8b95a5" font-family="Inter, system-ui, sans-serif" font-size="12">Context window usage:</text>
<rect x="780" y="342" width="275" height="6" rx="3" fill="rgba(255,255,255,0.06)"/>
<rect x="780" y="342" width="165" height="6" rx="3" fill="#00BCEB"/>
<text x="780" y="364" fill="#00BCEB" font-family="Inter, system-ui, sans-serif" font-size="12" font-weight="500">60% used</text>
</svg>